# xmcd CD database file
#
# Track frame offsets:
#	150
#	18820
#	34756
#	55583
#	74457
#	92672
#	113859
#	142046
#	161145
#	180213
#	200425
#
# Disc length: 3049 seconds
#
# Revision: 0
# Processed by: cddbd v1.5.2PL0 Copyright (c) Steve Scherf et al.
# Submitted via: CDex 1.51
#
DISCID=8d0be70b
DTITLE=Doble Filo - Doble Filo
DYEAR=1900
DGENRE=Merengue
TTITLE0=Ven A Mover
TTITLE1=Picante
TTITLE2=Que Viva El Amor
TTITLE3=Son Del Barrio
TTITLE4=El Sapito
TTITLE5=Me Enamoro
TTITLE6=La Botella
TTITLE7=No Te Pares
TTITLE8=Bulla
TTITLE9=La Clave
TTITLE10=Guarenas Zona Guerrillera
EXTD=
EXTT0=
EXTT1=
EXTT2=
EXTT3=
EXTT4=
EXTT5=
EXTT6=
EXTT7=
EXTT8=
EXTT9=
EXTT10=
PLAYORDER=
